<svg xmlns="http://www.w3.org/2000/svg" width="65" height="65" viewBox="0 0 65 65"><defs><style>.a{fill:#fff;}.b{fill:#515151;font-size:50px;font-family:UbuntuMono-Bold, Ubuntu Mono;font-weight:700;}</style></defs><g transform="translate(-37.824 -226.72)"><path class="a" d="M40.922,27.186c0,4.562-4.316,4.562-6.643,4.562h-2.9V23.124h3.645c2.038,0,5.9,0,5.9,4.063ZM63.2,22.632A26.321,26.321,0,0,1,67.881,9.824L57.482.72A20.2,20.2,0,0,1,46.217,4.808a21.752,21.752,0,0,1-11.03-1.942A23.3,23.3,0,0,1,24.133,4.808,21.724,21.724,0,0,1,13.411,1.1L2.983,10.2A25.716,25.716,0,0,1,7.258,22.632c.133,1.993-.517,4.737-1.975,8.284-.763,1.966-1.34,3.673-1.733,5.1a22.647,22.647,0,0,0-.667,3.427A15.357,15.357,0,0,0,6.524,49.665Q9.435,52.986,16.11,57A67.274,67.274,0,0,0,27.372,61.17l2.185.888c.687.29,1.424.57,2.193.876a8.84,8.84,0,0,1,3.436,2.786,9.655,9.655,0,0,1,3.524-2.786q1.424-.534,2.821-1.121c.758-.291,1.323-.511,1.651-.645q1.076-.456,2.193-.833c.9-.31,2.015-.691,3.344-1.11A29.868,29.868,0,0,0,54.348,57a47.415,47.415,0,0,0,9.467-7.23,15.172,15.172,0,0,0,3.764-10.327,33.393,33.393,0,0,0-2.5-8.248C63.632,27.529,62.992,24.685,63.2,22.632ZM44.089,35.1c-2.469,1.414-5.863,1.414-7.635,1.414H31.587V48.172H24.268v-29.9H34.657c4.829,0,8.866.272,11.671,3.264a8,8,0,0,1,2.046,5.6A8.992,8.992,0,0,1,44.089,35.1Z" transform="translate(34.943 226)"/><rect class="a" width="47" height="42" transform="translate(47 236)"/><text class="b" transform="translate(58 274)"><tspan x="0" y="0">A</tspan></text></g></svg>