<svg xmlns="http://www.w3.org/2000/svg" width="79" height="61" viewBox="0 0 79 61"><defs><style>.a,.c{fill:#fff;}.a{stroke:#000;}.b{fill:red;}.c{stroke:#707070;}.d{stroke:none;}.e{fill:none;}</style></defs><g transform="translate(-24 -279)"><g class="a" transform="translate(24 284)"><path class="d" d="M0,0H79a0,0,0,0,1,0,0V46A10,10,0,0,1,69,56H10A10,10,0,0,1,0,46V0A0,0,0,0,1,0,0Z"/><path class="e" d="M1,.5H78a.5.5,0,0,1,.5.5V46A9.5,9.5,0,0,1,69,55.5H10A9.5,9.5,0,0,1,.5,46V1A.5.5,0,0,1,1,.5Z"/></g><rect class="b" width="77" height="13" transform="translate(25 285)"/><g class="c" transform="translate(38 279)"><rect class="d" width="4" height="13" rx="2"/><rect class="e" x="0.5" y="0.5" width="3" height="12" rx="1.5"/></g><g class="c" transform="translate(62 279)"><rect class="d" width="4" height="13" rx="2"/><rect class="e" x="0.5" y="0.5" width="3" height="12" rx="1.5"/></g><g class="c" transform="translate(86 279)"><rect class="d" width="4" height="13" rx="2"/><rect class="e" x="0.5" y="0.5" width="3" height="12" rx="1.5"/></g><g class="c" transform="translate(34 304)"><rect class="d" width="60" height="1"/><rect class="e" x="0.5" y="0.5" width="59"/></g><g class="c" transform="translate(34 308)"><rect class="d" width="60" height="1"/><rect class="e" x="0.5" y="0.5" width="59"/></g><g class="c" transform="translate(34 312)"><rect class="d" width="60" height="1"/><rect class="e" x="0.5" y="0.5" width="59"/></g><g class="c" transform="translate(34 316)"><rect class="d" width="60" height="1"/><rect class="e" x="0.5" y="0.5" width="59"/></g><g class="c" transform="translate(34 320)"><rect class="d" width="60" height="1"/><rect class="e" x="0.5" y="0.5" width="59"/></g><g class="c" transform="translate(34 324)"><rect class="d" width="60" height="1"/><rect class="e" x="0.5" y="0.5" width="59"/></g><g class="c" transform="translate(34 328)"><rect class="d" width="60" height="1"/><rect class="e" x="0.5" y="0.5" width="59"/></g><g class="c" transform="translate(34 332)"><rect class="d" width="60" height="1"/><rect class="e" x="0.5" y="0.5" width="59"/></g></g></svg>